# xmcd
#
# Track frame offsets:
#	150
#	27577
#	63700
#	84882
#	107412
#	127267
#	154350
#	178050
#	206692
#	236400
#
# Disc length: 3635 seconds
#
# Revision: 0
# Processed by: cddbd v1.5.2PL0 Copyright (c) Steve Scherf et al.
# Submitted via: dBpowerAMP V4.0
#
DISCID=8a0e310a
DTITLE=Dan Tyack - Blackened Toast
DYEAR=2001
DGENRE=Blues
TTITLE0=Fortified Wine
TTITLE1=Funky Blue Steel
TTITLE2=One More Midnight
TTITLE3=Hoochi Coochi Man
TTITLE4=Polyester Esther
TTITLE5=Mambo Macabre Apocalypso
TTITLE6=Marti Gras Ya Ya
TTITLE7=Sleepwalk
TTITLE8=Blame Somebody
TTITLE9=Can't You See?
EXTD=
EXTT0=
EXTT1=
EXTT2=
EXTT3=
EXTT4=
EXTT5=
EXTT6=
EXTT7=
EXTT8=
EXTT9=
PLAYORDER=
